<svg xmlns="http://www.w3.org/2000/svg" viewBox="0 0 48 48" role="img" aria-label="Reader Hotkeys Mapper">
  <defs>
    <linearGradient id="bg" x1="8" y1="4" x2="40" y2="44" gradientUnits="userSpaceOnUse">
      <stop stop-color="#19191f"/>
      <stop offset="1" stop-color="#050507"/>
    </linearGradient>
    <linearGradient id="gold" x1="10" y1="8" x2="38" y2="34" gradientUnits="userSpaceOnUse">
      <stop stop-color="#ffd35a"/>
      <stop offset="1" stop-color="#d49b00"/>
    </linearGradient>
  </defs>
  <rect width="48" height="48" rx="12" fill="url(#bg)"/>
  <path fill="url(#gold)" d="M8 12.5A5.5 5.5 0 0 1 13.5 7H23v27H13.5A5.5 5.5 0 0 1 8 28.5v-16Zm17-5h9.5A5.5 5.5 0 0 1 40 13v15.5a5.5 5.5 0 0 1-5.5 5.5H25V7.5Z"/>
  <path fill="#101014" d="M14 14h6v2h-6v-2Zm0 5h6v2h-6v-2Zm0 5h5v2h-5v-2Zm15-10h6v2h-6v-2Zm0 5h6v2h-6v-2Zm1 5h5v2h-5v-2Z"/>
  <rect x="11" y="37" width="26" height="6" rx="3" fill="#f5f1e8"/>
  <path fill="#101014" d="M17 38.4 20.1 41 17 43.6v-5.2Zm14 0v5.2L27.9 41 31 38.4ZM22 39h4v4h-4v-4Z"/>
</svg>
